<svg width="22" height="22" viewBox="0 0 22 22" fill="none" xmlns="http://www.w3.org/2000/svg">
<path d="M11.1233 19.2467C15.6097 19.2467 19.2467 15.6097 19.2467 11.1233C19.2467 6.63694 15.6097 3 11.1233 3C6.63694 3 3 6.63694 3 11.1233C3 15.6097 6.63694 19.2467 11.1233 19.2467Z" fill="#EE7203"/>
<path d="M11.1233 17.4415C14.6127 17.4415 17.4415 14.6127 17.4415 11.1233C17.4415 7.63391 14.6127 4.80518 11.1233 4.80518C7.63391 4.80518 4.80518 7.63391 4.80518 11.1233C4.80518 14.6127 7.63391 17.4415 11.1233 17.4415Z" fill="white"/>
<path d="M11.1235 12.0259V5.7077" stroke="black" stroke-width="0.812334" stroke-linecap="round"/>
<path d="M11.1235 12.0259L14.7338 9.31812" stroke="black" stroke-width="0.812334" stroke-linecap="round"/>
</svg>
