<svg width="23" height="23" viewBox="0 0 23 23" fill="none" xmlns="http://www.w3.org/2000/svg">
<path fill-rule="evenodd" clip-rule="evenodd" d="M21 11.5C21 16.7467 16.7467 21 11.5 21C6.25329 21 2 16.7467 2 11.5C2 6.25329 6.25329 2 11.5 2C16.7467 2 21 6.25329 21 11.5ZM23 11.5C23 17.8513 17.8513 23 11.5 23C5.14873 23 0 17.8513 0 11.5C0 5.14873 5.14873 0 11.5 0C17.8513 0 23 5.14873 23 11.5ZM11.5 18C15.0899 18 18 15.0899 18 11.5C18 7.91015 15.0899 5 11.5 5C7.91015 5 5 7.91015 5 11.5C5 15.0899 7.91015 18 11.5 18Z" fill="#EE7203"/>
</svg>
