<svg width="22" height="22" viewBox="0 0 22 22" fill="none" xmlns="http://www.w3.org/2000/svg">
<mask id="mask0_518_19" style="mask-type:luminance" maskUnits="userSpaceOnUse" x="1" y="1" width="21" height="21">
<path d="M21.6931 1H1V21.6931H21.6931V1Z" fill="white"/>
</mask>
<g mask="url(#mask0_518_19)">
<path d="M19.9686 15.5888V18.1754C19.9695 18.4156 19.9204 18.6532 19.8242 18.8733C19.728 19.0933 19.587 19.2907 19.4099 19.453C19.233 19.6154 19.0241 19.739 18.7967 19.8159C18.5692 19.8928 18.3281 19.9214 18.089 19.8999C15.4358 19.6116 12.8873 18.7049 10.6481 17.2528C8.56483 15.929 6.79859 14.1628 5.4748 12.0796C4.01764 9.83019 3.11081 7.26924 2.8278 4.60413C2.80625 4.3657 2.8346 4.1254 2.91101 3.89852C2.98742 3.67163 3.11023 3.46315 3.27164 3.28634C3.43304 3.10953 3.62949 2.96826 3.84848 2.87153C4.06748 2.7748 4.30421 2.72473 4.54361 2.72451H7.13025C7.54869 2.72039 7.95434 2.86856 8.27162 3.14141C8.58888 3.41427 8.79611 3.79318 8.85468 4.20752C8.96385 5.0353 9.16632 5.84807 9.45823 6.63033C9.57424 6.93895 9.59934 7.27434 9.53057 7.59678C9.46181 7.91922 9.30205 8.21518 9.07023 8.44961L7.97522 9.54463C9.20264 11.7032 10.9899 13.4905 13.1485 14.7179L14.2435 13.6229C14.478 13.3911 14.7739 13.2313 15.0963 13.1625C15.4188 13.0938 15.7542 13.1189 16.0628 13.2349C16.8451 13.5268 17.6578 13.7293 18.4856 13.8384C18.9044 13.8976 19.287 14.1085 19.5603 14.4312C19.8338 14.7539 19.9791 15.1659 19.9686 15.5888Z" stroke="#EE7203" stroke-width="1.62467" stroke-linecap="round" stroke-linejoin="round"/>
</g>
</svg>
