<?xml version="1.0" encoding="UTF-8"?>
<!DOCTYPE svg PUBLIC "-//W3C//DTD SVG 1.1//EN" "http://www.w3.org/Graphics/SVG/1.1/DTD/svg11.dtd">
<!-- Creator: CorelDRAW 2018 (64-Bit) -->
<svg xmlns="http://www.w3.org/2000/svg" xml:space="preserve" width="385.401mm" height="85.9079mm"
  version="1.1"
  style="shape-rendering:geometricPrecision; text-rendering:geometricPrecision; image-rendering:optimizeQuality; fill-rule:evenodd; clip-rule:evenodd"
  viewBox="0 0 1332935.34 297117.88"
  xmlns:xlink="http://www.w3.org/1999/xlink">
 <defs>
  <style type="text/css">
   <![CDATA[
    .str0 {stroke:#2B2A29;stroke-width:345.86;stroke-miterlimit:22.9256}
    .fil0 {fill:#EF7F1A}
    .fil1 {fill:#2B2A29;fill-rule:nonzero}
   ]]>
  </style>
 </defs>
 <g id="Слой_x0020_1">
  <metadata id="CorelCorpID_0Corel-Layer"/>
  <g id="_2370715803312">
   <g>
    <path class="fil0" d="M56643.65 0l103512.37 26813.55 -57473.36 17393.11c1425.97,148.37 2813.2,332.37 4120.88,554.75 20162.38,3442.65 33761.45,3442.65 53923.84,0 10239.08,-1747.27 25305.27,-999.87 25305.27,-999.87l-2497.08 6409.41c0,0 -8242.1,250.05 -17063.51,2000.09 -8824.18,1747.27 -14854.53,4577.06 -14854.53,4577.06l0 24357.28c0,0 47720.21,1167.61 56396.36,3837.97 3461.33,1065.93 12154.08,3222.69 20165.15,8118.28l-15967.49 -52764.53 63086.26 16343.78 -26813.55 103515.13 -7395.79 -24437.17c-458.95,1230.9 -972.55,2491.89 -1541.14,3782.98 -18687.31,42379.85 -78086.4,48553.04 -83089.21,49387.93 -5005.58,832.48 -5172.97,500.11 -5172.97,5005.58 0,4505.82 2167.48,25192.86 2167.48,25192.86l34706.33 4173.1 332.71 3002.72 -27.67 27.32 46536.35 -14082.58 -16343.44 63089.03 -103515.13 -26816.31 52745.16 -15961.96c-21794.48,-3862.52 -49097.07,-3722.45 -70492.78,417.79 -10346.29,2002.51 -18354.59,-6673.3 -18354.59,-6673.3l335.13 -3002.72 34703.57 -4173.1c0,0 2167.83,-20687.05 2167.83,-25192.86 0,-4505.47 -164.97,-4173.1 -5170.55,-5005.58 -4219.79,-703.13 -47049.94,-5197.87 -71608.16,-31945.36l23621.29 78053.19 -63088.68 -16343.44 30725.53 -118603.46c9156.89,-10057.85 23994.82,-13631.93 28794.61,-15107.35 8675.81,-2670.36 56393.6,-3837.97 56393.6,-3837.97l0 -24357.28c0,0 -6030.35,-2829.8 -14854.87,-4577.06 -8821.41,-1750.03 -17063.17,-2000.09 -17063.17,-2000.09l-107.22 -274.61 -43588.61 13189.58 16343.78 -63085.92zm59102.34 90784.16l0 89429.79c0,0 -56893.71,-6173.19 -56893.71,-55225.99 0,-43379.72 56893.71,-34203.8 56893.71,-34203.8zm36038.92 0l0 89429.79c0,0 56896.47,-6173.19 56896.47,-55225.99 0,-43379.72 -56896.47,-34203.8 -56896.47,-34203.8z"/>
    <path class="fil0" d="M282245.36 210718.83l12281.01 1619.65 0 8502.19 -46425.33 -269.77c0,0 1214.65,-7692.88 6208.12,-8502.53 4993.47,-809.65 9581.95,-134.88 13360.77,-10256.71 3778.83,-10121.83 33874.2,-92310.77 33874.2,-92310.77l-11201.59 -2159.18 -674.77 -8772.3c0,0 7962.65,2024.3 22133.07,2024.3 14170.42,0 29150.84,-2564.18 29150.84,-2564.18l405 9447.06 -10526.83 1754.53 36168.61 101487.72 8232.42 0 0 10795.56 -53038.1 0 2968.83 -9311.14 14170.42 -1754.18 -15114.96 -42646.5 -31308.99 0 -10662.75 42916.27zm27666.08 -95279.95l-14980.07 41701.97 26856.43 0 -11876.36 -41701.97z"/>
    <path class="fil0" d="M378334.96 100998.68l3238.94 8907.18 11336.48 674.77 0 100273.08 -10930.44 0 0 10660.67 57220.54 0c0,0 38328.14,-1618.61 38328.14,-33873.17 0,-32254.9 -59516.33,-43456.5 -59516.33,-43456.5l0 -32658.17c0,0 25777.02,-406.04 33739.32,2293.03 7962.65,2699.06 12820.89,18354.25 12820.89,18354.25l9986.95 3238.94c0,0 -1754.53,-27531.54 -405,-33739.32 1349.53,-6208.12 2294.41,-13091.01 2294.41,-13091.01l-10121.83 4183.82 -2429.29 7152.65 -85562.77 1079.76zm39598.12 55569.08l0 54490.7c0,0 34971.6,-1897.71 34971.6,-23314.17 0,-21416.81 -34971.6,-31176.52 -34971.6,-31176.52z"/>
    <path class="fil0" d="M482656.98 107476.57l-2449.35 -9144.09 53867.81 0c0,0 39407.56,-1382.73 39407.56,31141.94 0,32524.67 -57761.46,43186.38 -57761.46,43186.38l0 35898.85 9581.95 2294.06 944.53 8502.53 -44669.76 0 3237.91 -9447.06 7422.77 0 0 -101486.69 -9581.95 -945.92zm33739.32 1214.65l0 54387.63c0,0 30230.26,-10797.63 30230.26,-31849.91 0,-21052.27 -30230.26,-22537.73 -30230.26,-22537.73z"/>
    <path class="fil0" d="M565250.58 98569.39l2381.91 8893 13273.27 0 0 100341.9 -13880.6 1794.65 -3396.31 9351.26 56819.35 0 0 -8326.14 -15516.5 -1503.44 0 -12079.72 57623.12 -71345.31 0 82399.92 -13196.15 1229.86 -4619.26 9010.25 55635.48 0 0 -8599.37 -13314.43 -956.64c0,0 -3179.8,-18053.35 -3179.8,-50856.44 0,-32802.74 2439.67,-49881.82 2439.67,-49881.82l14697.51 0 0 -10010.81 -55467.39 0 4453.59 8501.15 11336.13 1889.41 270.11 2699.41 -57626.92 66668.64 539.88 -70447.47 12820.89 -405 3913.71 -3238.94 0 -6071.85 -56007.28 943.5z"/>
    <path class="fil0" d="M706529.76 98569.39l2381.91 8893 13272.93 0 0 100341.9 -13880.25 1794.65 -3396.65 9351.26 56819.35 0 0 -8326.14 -17351.26 -1503.44 -182.27 -45350.41 6758.38 -6224.72 70177.7 67208.87 8097.53 -7692.54 -59651.22 -75845.94 39407.56 -32929.67c0,0 2294.41,-539.88 7422.77,-1349.53 5128.36,-809.65 6882.89,-9482.69 6882.89,-9482.69l-45132.52 0 0 7712.94c0,0 3735.94,68.48 4551.81,68.48 815.53,0 4681.86,3320.91 4681.86,3320.91l-43258.32 39696.35 -164.63 -40910.99 14656.01 -405 3913.71 -3238.94 0 -6071.85 -56007.28 943.5z"/>
    <path class="fil0" d="M865899.99 210718.83l12281.01 1619.65 0 8502.19 -46425.33 -269.77c0,0 1214.65,-7692.88 6208.12,-8502.53 4993.47,-809.65 9581.95,-134.88 13360.77,-10256.71 3778.83,-10121.83 33874.2,-92310.77 33874.2,-92310.77l-11201.25 -2159.18 -674.77 -8772.3c0,0 7962.3,2024.3 22132.73,2024.3 14170.77,0 29150.84,-2564.18 29150.84,-2564.18l405 9447.06 -10526.83 1754.53 36168.61 101487.72 8232.42 0 0 10795.56 -53038.1 0 2968.83 -9311.14 14170.77 -1754.18 -15115.3 -42646.5 -31308.99 0 -10662.75 42916.27zm27666.43 -95279.95l-14980.42 41701.97 26856.43 0 -11876.01 -41701.97z"/>
    <path class="fil0" d="M964175.06 98569.39l2296.49 8893 12804.29 0 0 100341.9 -13390.17 1794.65 -3275.6 9351.26 54807.85 0 0 -8326.14 -17666.34 -1638.32 -167.05 -43296.37 57993.87 -6269.68 456.88 48675.81 -12729.59 1229.86 -4456.01 9010.25 53666.87 0 0 -8599.37 -12843.37 -956.64c0,0 -3067.4,-18053.35 -3067.4,-50856.44 0,-32802.74 2353.55,-49881.82 2353.55,-49881.82l14177.34 0 0 -10010.81 -53504.66 0 4296.23 8501.15 10935.28 1889.41 260.43 2699.41 351.39 37382.91 -57956.87 0 -159.79 -41296.97 15065.5 -269.77 3775.02 -3238.94 0 -6071.85 -54024.14 943.5z"/>
    <path class="fil0" d="M1098932.08 90419.98l-271.15 36869.32 7048.55 -1626.56c0,0 1626.56,-6777.75 5964.29,-10030.87 4337.73,-3253.12 22501.06,-4608.54 22501.06,-4608.54l0 96782 -19513.21 3048.38 -2564.18 8907.18 35358.96 0 35358.96 0 -2564.18 -8907.18 -19513.21 -3048.38 0 -96782c0,0 18163.33,1355.41 22501.06,4608.54 4337.73,3253.12 5964.29,10030.87 5964.29,10030.87l7048.55 1626.56 -271.15 -36869.32 -9386.89 1806.41 -944.53 6882.89 -38192.91 674.77 -38192.91 -674.77 -944.53 -6882.89 -9386.89 -1806.41z"/>
    <path class="fil0" d="M1201407.23 49484.08l0 74008.4 11928.58 -9216.03 -1084.61 -26567.64c0,0 4880.03,-4879.69 9488.57,-4879.69 4608.54,0 10301.68,1626.56 10301.68,9217.42 0,7590.51 0,115486.6 0,115486.6l-22501.06 2441.05 -2564.18 9570.19 73049.69 0c0,0 49339.86,-2521.64 49339.86,-39933.26 0,-37411.62 -69943.21,-51237.57 -69943.21,-51237.57l0 -47753.42 26904.85 -4318.71 0 -8367.3 -75305.02 0 -1080.8 -15250.19 -8534.35 -3199.86zm57744.17 89462.3l0 68857.91c0,0 37411.62,2712.21 37411.62,-29277.43 0,-31989.63 -37411.62,-39580.49 -37411.62,-39580.49z"/>
   </g>
   <path class="fil1 str0" d="M276088.43 296944.95c10720.16,0 17475.77,-4676.67 17475.77,-14030.01 0,-10082.06 -7880.68,-14026.89 -17475.77,-14026.89 -8251.09,0 -17469.2,2923.18 -17469.2,14026.89 0,8695.86 5785.48,14030.01 17469.2,14030.01zm-51.53 -26741.95c3696.86,0 7236.01,986.38 9701.61,2849.16 2414.08,1972.42 3912.67,5079.59 3912.67,9862.78 0,4167.57 -1392.42,7564.57 -3912.67,9791.88 -2249.8,1791.88 -5946.65,2887.9 -9650.08,2887.9 -3748.39,0 -7393.72,-1096.02 -9646.62,-2887.9 -2572.13,-2227.31 -3909.56,-5624.32 -3909.56,-9791.88 0,-4783.19 1447.06,-7890.37 3858.03,-9862.78 2520.25,-1937.14 5898.23,-2849.16 9646.62,-2849.16zm77947.36 9827.16l9701.61 -7745.11c1982.1,-1608.23 2681.77,-1791.88 4931.22,-1791.88l0 -1057.28 -9810.91 0 0 1057.28c1769.4,0 2629.89,148.03 2629.89,586.57 0,438.2 -860.49,1205.31 -2410.62,2484.98l-11741.82 9569.5 -161.17 0 0 -9827.51c0,-2665.51 218.93,-2813.54 3967.66,-2813.54l0 -1057.28 -11954.52 0 0 1057.28c3967.66,0 4290,148.03 4290,2778.26l0 19251.4c0,2633.35 -322.34,2813.89 -4290,2813.89l0 1060.4 12167.22 0 0 -1060.4c-3909.56,0 -4180.36,-180.54 -4180.36,-2813.89l0 -7013.27 4399.29 -3581 12647.62 14468.55 7284.08 0 0 -1060.4c-3264.88,0 -4070.73,-219.27 -6378.28,-2739.53l-11090.92 -12567.03zm78962.8 16914.79c10720.16,0 17475.77,-4676.67 17475.77,-14030.01 0,-10082.06 -7880.68,-14026.89 -17475.77,-14026.89 -8251.09,0 -17472.31,2923.18 -17472.31,14026.89 0,8695.86 5788.6,14030.01 17472.31,14030.01zm-51.53 -26741.95c3696.86,0 7232.55,986.38 9701.61,2849.16 2410.62,1972.42 3909.56,5079.59 3909.56,9862.78 0,4167.57 -1389.3,7564.57 -3909.56,9791.88 -2249.8,1791.88 -5946.65,2887.9 -9650.08,2887.9 -3748.39,0 -7393.72,-1096.02 -9646.62,-2887.9 -2572.13,-2227.31 -3909.56,-5624.32 -3909.56,-9791.88 0,-4783.19 1447.06,-7890.37 3858.03,-9862.78 2520.25,-1937.14 5898.23,-2849.16 9646.62,-2849.16zm92470.56 3068.44c0,-2630.24 270.81,-2778.26 4290,-2778.26l0 -1057.28 -11844.89 0 0 1057.28c3590.68,0 3858.03,148.03 3858.03,2742.64l0 8402.58 -20743.77 0 0 -8402.58c0,-2594.61 270.81,-2742.64 3861.14,-2742.64l0 -1057.28 -11844.89 0 0 1057.28c4019.2,0 4286.89,148.03 4286.89,2778.26l0 19290.13c0,2594.61 -267.69,2775.15 -4286.89,2775.15l0 1060.4 11844.89 0 0 -1060.4c-3590.33,0 -3861.14,-180.54 -3861.14,-2775.15l0 -9536.99 20743.77 0 0 9536.99c0,2594.61 -267.35,2775.15 -3858.03,2775.15l0 1060.4 11844.89 0 0 -1060.4c-4019.2,0 -4290,-180.54 -4290,-2775.15l0 -19290.13zm78431.21 0c0,-2630.24 270.46,-2778.26 4286.54,-2778.26l0 -1057.28 -11841.77 0 0 1057.28c3587.57,0 3858.03,148.03 3858.03,2742.64l0 8402.58 -20743.77 0 0 -8402.58c0,-2594.61 267.69,-2742.64 3858.03,-2742.64l0 -1057.28 -11844.89 0 0 1057.28c4019.2,0 4290,148.03 4290,2778.26l0 19290.13c0,2594.61 -270.81,2775.15 -4290,2775.15l0 1060.4 11844.89 0 0 -1060.4c-3590.33,0 -3858.03,-180.54 -3858.03,-2775.15l0 -9536.99 20743.77 0 0 9536.99c0,2594.61 -270.46,2775.15 -3858.03,2775.15l0 1060.4 11841.77 0 0 -1060.4c-4016.08,0 -4286.54,-180.54 -4286.54,-2775.15l0 -19290.13zm50289.93 8328.57l0 -8254.55c0,-2633.35 373.87,-2852.28 4608.88,-2852.28l0 -1057.28 -12595.74 0 0 1057.28c3916.13,0 4290,218.93 4290,2594.61l0 19399.77c0,2668.63 -322.34,2849.16 -4290,2849.16l0 1060.4 15702.91 0c11042.15,0 12866.55,-4750.68 12866.55,-7635.47 0,-3764.65 -4290,-7161.65 -15490.21,-7161.65l-5092.39 0zm27818.6 10961.57c0,2594.61 -212.7,2775.15 -4718.86,2775.15l0 1060.4 13134.24 0 0 -1060.4c-4451.17,0 -4718.52,-180.54 -4718.52,-2775.15l0 -19254.86c0,-2665.51 267.35,-2813.54 4718.52,-2813.54l0 -1057.28 -13079.25 0 0 1057.28c4451.17,0 4663.87,148.03 4663.87,2813.54l0 19254.86zm-27818.6 -9607.89l5737.06 0c8679.96,0 10987.51,3103.71 10987.51,5772.34 0,4309.37 -3161.82,6320.52 -9272.75,6320.52l-5469.72 0c-1659.76,0 -1982.1,-293.29 -1982.1,-1862.78l0 -10230.08zm104531.61 13443.43l1927.46 -5737.06 -1872.81 0c-1502.05,4128.83 -2037.09,4386.5 -5202.02,4386.5l-11148.68 0c-1125.07,0 -1550.47,-218.93 -1550.47,-1643.85l0 -10378.11 8467.25 0c2465.61,0 2784.83,218.93 2784.83,3764.65l1879.04 0 0 -8879.86 -1879.04 0c0,3435.74 -319.23,3729.02 -2730.19,3729.02l-8521.9 0 0 -9060.05c0,-1572.95 161.17,-1791.88 2033.98,-1791.88l9111.58 0c2949.12,0 3484.16,74.01 4931.22,4273.75l1875.92 0 -1714.76 -5624.32 -24279.46 0 0 1057.28c3964.55,0 4344.65,148.03 4344.65,2778.26l0 19251.4c0,2633.35 -380.1,2813.89 -4344.65,2813.89l0 1060.4 25888.04 0zm93434.46 -7122.91c-1821.28,3358.26 -5092.73,6210.89 -10984.4,6210.89 -6217.46,0 -12757.26,-3655.01 -12757.26,-12899.06 0,-7890.02 5092.73,-12383.04 13343.83,-12383.04 7132.59,0 7664.52,1862.78 9005.41,6136.87l1824.05 -254.55c-592.8,-1863.13 -1018.55,-3874.28 -1395.53,-5921.06 -2088.63,-583.46 -5678.96,-1276.21 -9433.92,-1276.21 -10500.89,0 -17201.85,4821.58 -17201.85,13736.72 0,11506.64 9218.11,14320.18 16186.42,14320.18 5466.6,0 10449.36,-1937.14 13292.29,-7271.28l-1879.04 -399.46zm80577.25 -15967.49c0,-2665.51 322.34,-2813.54 4283.43,-2813.54l0 -1057.28 -11947.95 0 0 1057.28c3961.09,0 3961.09,148.03 3961.09,3400.11l-20788.73 16073.67 0 -16731.14c0,-2594.61 264.23,-2742.64 3909.56,-2742.64l0 -1057.28 -11954.52 0 0 1057.28c4019.2,0 4341.53,148.03 4341.53,2813.54l0 19254.86c0,2594.61 -322.34,2775.15 -4341.53,2775.15l0 1060.4 11954.52 0 0 -1060.4c-3909.56,0 -3909.56,-219.27 -3909.56,-3213.35l20788.73 -16038.05 0 16476.25c0,2594.61 -264.23,2775.15 -3961.09,2775.15l0 1060.4 11947.95 0 0 -1060.4c-3961.09,0 -4283.43,-180.54 -4283.43,-2775.15l0 -19254.86zm76281.03 15967.49c-1820.93,3358.26 -5092.39,6210.89 -10984.05,6210.89 -6217.46,0 -12757.26,-3655.01 -12757.26,-12899.06 0,-7890.02 5092.73,-12383.04 13343.83,-12383.04 7129.48,0 7664.52,1862.78 9001.95,6136.87l1827.5 -254.55c-593.14,-1863.13 -1018.55,-3874.28 -1395.53,-5921.06 -2088.63,-583.46 -5678.96,-1276.21 -9433.92,-1276.21 -10500.89,0 -17201.85,4821.58 -17201.85,13736.72 0,11506.64 9215,14320.18 16186.42,14320.18 5466.6,0 10449.36,-1937.14 13292.29,-7271.28l-1879.38 -399.46zm68352.27 -18487.75l7664.52 0c3165.28,0 3487.61,109.64 4663.87,4493.02l1769.75 0 -1286.24 -5843.59 -29317.2 0 -1234.36 5843.59 1769.4 0c1073.19,-4309.37 1447.06,-4493.02 4608.88,-4493.02l7664.52 0 0 21775.11c0,2594.61 -212.7,2775.15 -5143.92,2775.15l0 1060.4 14043.15 0 0 -1060.4c-4931.56,0 -5202.37,-180.54 -5202.37,-2775.15l0 -21775.11zm88506.35 25610.66l1930.57 -5737.06 -1872.47 0c-1505.17,4128.83 -2040.21,4386.5 -5202.02,4386.5l-11148.68 0c-1125.07,0 -1550.47,-218.93 -1550.47,-1643.85l0 -10378.11 8467.25 0c2462.5,0 2784.83,218.93 2784.83,3764.65l1875.58 0 0 -8879.86 -1875.58 0c0,3435.74 -322.34,3729.02 -2733.3,3729.02l-8518.79 0 0 -9060.05c0,-1572.95 158.06,-1791.88 2030.52,-1791.88l9111.93 0c2952.23,0 3487.27,74.01 4931.22,4273.75l1879.04 0 -1717.87 -5624.32 -24279.46 0 0 1057.28c3967.66,0 4344.65,148.03 4344.65,2778.26l0 19251.4c0,2633.35 -376.98,2813.89 -4344.65,2813.89l0 1060.4 25887.69 0zm79874.82 -26961.23l-13182.31 23235.32 -158.06 0 -13833.56 -23235.32 -7767.59 0 0 1057.28c3909.56,0 4180.36,109.64 4180.36,2668.63l0 19361.04c0,2633.35 -270.81,2813.89 -4180.36,2813.89l0 1060.4 10130.13 0 0 -1060.4c-3648.44,0 -3861.14,-180.54 -3861.14,-2813.89l0 -19615.59 109.64 0 13936.63 23673.52 1443.95 0 13291.95 -23638.24 109.64 0 0 19580.31c0,2633.35 -161.17,2813.89 -3864.6,2813.89l0 1060.4 11793.35 0 0 -1060.4c-3967.66,0 -4231.9,-180.54 -4231.9,-2813.89l0 -19216.12c0,-2665.51 212.7,-2813.54 4231.9,-2813.54l0 -1057.28 -8148.03 0zm50883.07 12164.11l0 -8254.55c0,-2633.35 373.87,-2852.28 4609.23,-2852.28l0 -1057.28 -12596.09 0 0 1057.28c3916.13,0 4290,218.93 4290,2594.61l0 19399.77c0,2668.63 -322.34,2849.16 -4290,2849.16l0 1060.4 15703.26 0c11042.15,0 12866.55,-4750.68 12866.55,-7635.47 0,-3764.65 -4290,-7161.65 -15490.21,-7161.65l-5092.73 0zm27818.6 10961.57c0,2594.61 -212.7,2775.15 -4721.63,2775.15l0 1060.4 13137.35 0 0 -1060.4c-4451.17,0 -4718.86,-180.54 -4718.86,-2775.15l0 -19254.86c0,-2665.51 267.69,-2813.54 4718.86,-2813.54l0 -1057.28 -13079.59 0 0 1057.28c4451.17,0 4663.87,148.03 4663.87,2813.54l0 19254.86zm-27818.6 -9607.89l5737.41 0c8679.61,0 10987.51,3103.71 10987.51,5772.34 0,4309.37 -3165.28,6320.52 -9273.1,6320.52l-5469.37 0c-1660.11,0 -1982.45,-293.29 -1982.45,-1862.78l0 -10230.08z"/>
  </g>
 </g>
</svg>