<svg width="1457" height="325" viewBox="0 0 1457 325" fill="none" xmlns="http://www.w3.org/2000/svg">
  <path fill-rule="evenodd" clip-rule="evenodd"
    d="M61.9003 0.00021589L175.019 29.3021L112.212 48.3093C113.77 48.4715 115.286 48.6725 116.715 48.9156C138.749 52.6777 153.61 52.6777 175.643 48.9156C186.832 47.0061 203.297 47.8229 203.297 47.8229L200.568 54.8271C200.568 54.8271 191.561 55.1004 181.921 57.0128C172.278 58.9222 165.688 62.0146 165.688 62.0146V88.6323C165.688 88.6323 217.837 89.9083 227.318 92.8264C231.1 93.9913 240.6 96.3482 249.354 101.698L231.905 44.0369L300.846 61.8975L271.544 175.019L263.462 148.314C262.96 149.659 262.399 151.037 261.778 152.448C241.356 198.761 176.445 205.507 170.978 206.419C165.508 207.329 165.325 206.966 165.325 211.889C165.325 216.813 167.693 239.42 167.693 239.42L205.62 243.98L205.984 247.262L205.954 247.292L256.809 231.902L238.949 300.846L125.827 271.541L183.467 254.098C159.65 249.877 129.814 250.03 106.432 254.554C95.126 256.743 86.3746 247.262 86.3746 247.262L86.7408 243.98L124.665 239.42C124.665 239.42 127.034 216.813 127.034 211.889C127.034 206.966 126.854 207.329 121.384 206.419C116.772 205.651 69.9673 200.739 43.13 171.509L68.9434 256.806L0 238.946L33.5769 109.336C43.5836 98.3445 59.7985 94.4387 65.0437 92.8264C74.5246 89.9082 126.671 88.6323 126.671 88.6323V62.0146C126.671 62.0146 120.081 58.9222 110.437 57.0128C100.797 55.1003 91.7906 54.8271 91.7906 54.8271L91.6734 54.527L44.0398 68.9406L61.9003 0.000183105V0.00021589ZM126.487 99.2093V196.938C126.487 196.938 64.3139 190.192 64.3139 136.587C64.3139 89.1818 126.487 99.2093 126.487 99.2093ZM165.871 99.2093V196.938C165.871 196.938 228.047 190.192 228.047 136.587C228.047 89.1818 165.871 99.2093 165.871 99.2093Z"
    fill="#EF7F1A" />
  <path fill-rule="evenodd" clip-rule="evenodd"
    d="M308.438 230.274L321.859 232.044V241.335L271.125 241.04C271.125 241.04 272.453 232.634 277.909 231.749C283.366 230.864 288.381 231.601 292.51 220.54C296.64 209.479 329.528 119.663 329.528 119.663L317.287 117.303L316.549 107.717C316.549 107.717 325.251 109.929 340.736 109.929C356.222 109.929 372.593 107.127 372.593 107.127L373.035 117.451L361.531 119.368L401.057 230.274H410.053V242.071H352.093L355.337 231.896L370.823 229.979L354.305 183.375H320.09L308.438 230.274L308.438 230.274ZM338.672 126.152L322.301 171.724H351.65L338.672 126.152Z"
    fill="#EF7F1A" />
  <path fill-rule="evenodd" clip-rule="evenodd"
    d="M413.445 110.372L416.985 120.105L429.373 120.843V230.421H417.428V242.071H479.959C479.959 242.071 521.844 240.303 521.844 205.055C521.844 169.807 456.804 157.565 456.804 157.565V121.877C456.804 121.877 484.974 121.433 493.675 124.382C502.376 127.332 507.686 144.44 507.686 144.44L518.599 147.979C518.599 147.979 516.682 117.893 518.157 111.109C519.631 104.325 520.664 96.8032 520.664 96.8032L509.603 101.375L506.948 109.192L413.445 110.372V110.372ZM456.718 171.098V230.645C456.718 230.645 494.935 228.571 494.935 205.167C494.935 181.763 456.718 171.098 456.718 171.098Z"
    fill="#EF7F1A" />
  <path fill-rule="evenodd" clip-rule="evenodd"
    d="M527.448 117.451L524.772 107.458H583.638C583.638 107.458 626.703 105.947 626.703 141.49C626.703 177.033 563.581 188.684 563.581 188.684V227.914L574.052 230.421L575.085 239.713H526.269L529.808 229.389H537.919V118.484L527.448 117.451H527.448ZM564.319 118.778V178.213C564.319 178.213 597.354 166.413 597.354 143.407C597.354 120.401 564.319 118.778 564.319 118.778V118.778Z"
    fill="#EF7F1A" />
  <path fill-rule="evenodd" clip-rule="evenodd"
    d="M617.707 107.717L620.31 117.435H634.815V227.089L619.646 229.05L615.934 239.269H678.027V230.17L661.07 228.528V215.327L724.041 137.361V227.407L709.62 228.751L704.572 238.598H765.371V229.2L750.821 228.155C750.821 228.155 747.346 208.426 747.346 172.579C747.346 136.732 750.012 118.068 750.012 118.068H766.073V107.128H705.458L710.325 116.418L722.714 118.483L723.009 121.433L660.034 194.288L660.624 117.303L674.635 116.861L678.911 113.321V106.686L617.707 107.717Z"
    fill="#EF7F1A" />
  <path fill-rule="evenodd" clip-rule="evenodd"
    d="M772.097 107.717L774.7 117.435H789.204V227.089L774.036 229.05L770.324 239.269H832.417V230.17L813.455 228.528L813.256 178.968L820.641 172.166L897.332 245.612L906.181 237.206L840.994 154.321L884.058 118.336C884.058 118.336 886.566 117.746 892.17 116.861C897.774 115.976 899.692 106.498 899.692 106.498H850.371V114.927C850.371 114.927 854.453 115.002 855.345 115.002C856.236 115.002 860.461 118.631 860.461 118.631L813.189 162.011L813.009 117.303L829.025 116.861L833.302 113.321V106.686L772.097 107.717Z"
    fill="#EF7F1A" />
  <path fill-rule="evenodd" clip-rule="evenodd"
    d="M946.257 230.274L959.677 232.044V241.335L908.944 241.04C908.944 241.04 910.271 232.634 915.728 231.749C921.185 230.864 926.199 231.601 930.329 220.54C934.458 209.479 967.347 119.663 967.347 119.663L955.106 117.303L954.368 107.717C954.368 107.717 963.07 109.929 978.555 109.929C994.041 109.929 1010.41 107.127 1010.41 107.127L1010.85 117.451L999.35 119.368L1038.88 230.274H1047.87V242.071H989.911L993.156 231.896L1008.64 229.979L992.124 183.375H957.909L946.257 230.274V230.274ZM976.491 126.152L960.12 171.724H989.469L976.491 126.152Z"
    fill="#EF7F1A" />
  <path fill-rule="evenodd" clip-rule="evenodd"
    d="M1053.65 107.717L1056.16 117.435H1070.15V227.089L1055.52 229.05L1051.94 239.269H1111.84V230.17L1092.53 228.38L1092.35 181.066L1155.72 174.214L1156.22 227.407L1142.31 228.751L1137.44 238.598H1196.09V229.2L1182.05 228.155C1182.05 228.155 1178.7 208.426 1178.7 172.579C1178.7 136.732 1181.27 118.068 1181.27 118.068H1196.77V107.128H1138.3L1142.99 116.418L1154.94 118.483L1155.23 121.433L1155.61 162.285H1092.28L1092.1 117.156L1108.56 116.861L1112.69 113.321V106.686L1053.65 107.717V107.717Z"
    fill="#EF7F1A" />
  <path fill-rule="evenodd" clip-rule="evenodd"
    d="M1200.91 98.8113L1200.62 139.102L1208.32 137.325C1208.32 137.325 1210.1 129.918 1214.84 126.363C1219.58 122.808 1239.43 121.327 1239.43 121.327V227.09L1218.1 230.421L1215.3 240.155H1253.94H1292.58L1289.78 230.421L1268.46 227.09V121.327C1268.46 121.327 1288.3 122.808 1293.05 126.363C1297.79 129.918 1299.56 137.325 1299.56 137.325L1307.27 139.102L1306.97 98.8113L1296.71 100.785L1295.68 108.307L1253.94 109.044L1212.2 108.307L1211.17 100.785L1200.91 98.8113H1200.91Z"
    fill="#EF7F1A" />
  <path fill-rule="evenodd" clip-rule="evenodd"
    d="M1312.9 54.0765V134.953L1325.94 124.882L1324.75 95.8485C1324.75 95.8485 1330.08 90.516 1335.12 90.516C1340.16 90.516 1346.38 92.2935 1346.38 100.589C1346.38 108.884 1346.38 226.793 1346.38 226.793L1321.79 229.46L1318.99 239.919H1398.81C1398.81 239.919 1452.73 237.163 1452.73 196.28C1452.73 155.396 1376.3 140.287 1376.3 140.287V88.102L1405.7 83.3825V74.2387H1323.41L1322.23 57.5733L1312.9 54.0765V54.0765ZM1376 151.841V227.089C1376 227.089 1416.89 230.053 1416.89 195.095C1416.89 160.136 1376 151.841 1376 151.841Z"
    fill="#EF7F1A" />
  <path
    d="M301.71 324.502C313.425 324.502 320.807 319.391 320.807 309.17C320.807 298.152 312.195 293.841 301.71 293.841C292.693 293.841 282.619 297.036 282.619 309.17C282.619 318.673 288.942 324.502 301.71 324.502ZM301.653 295.278C305.693 295.278 309.561 296.356 312.255 298.392C314.893 300.547 316.531 303.943 316.531 309.17C316.531 313.724 315.009 317.437 312.255 319.871C309.797 321.829 305.757 323.027 301.71 323.027C297.614 323.027 293.63 321.829 291.168 319.871C288.357 317.437 286.896 313.724 286.896 309.17C286.896 303.943 288.477 300.547 291.112 298.392C293.866 296.275 297.557 295.278 301.653 295.278ZM386.834 306.018L397.436 297.554C399.602 295.796 400.367 295.596 402.825 295.596V294.44H392.104V295.596C394.037 295.596 394.978 295.757 394.978 296.237C394.978 296.715 394.037 297.554 392.343 298.952L379.512 309.41H379.336V298.67C379.336 295.757 379.575 295.596 383.672 295.596V294.44H370.608V295.596C374.944 295.596 375.296 295.757 375.296 298.632V319.67C375.296 322.547 374.944 322.745 370.608 322.745V323.903H383.904V322.745C379.632 322.745 379.336 322.547 379.336 319.67V312.005L384.143 308.092L397.965 323.903H405.925V322.745C402.357 322.745 401.476 322.505 398.955 319.751L386.834 306.018ZM473.125 324.502C484.84 324.502 492.223 319.391 492.223 309.17C492.223 298.152 483.611 293.841 473.125 293.841C464.108 293.841 454.031 297.036 454.031 309.17C454.031 318.673 460.357 324.502 473.125 324.502ZM473.069 295.278C477.109 295.278 480.972 296.356 483.671 298.392C486.305 300.547 487.943 303.943 487.943 309.17C487.943 313.724 486.425 317.437 483.671 319.871C481.212 321.829 477.172 323.027 473.125 323.027C469.029 323.027 465.045 321.829 462.583 319.871C459.772 317.437 458.311 313.724 458.311 309.17C458.311 303.943 459.892 300.547 462.527 298.392C465.281 296.275 468.973 295.278 473.069 295.278ZM574.121 298.632C574.121 295.757 574.417 295.596 578.809 295.596V294.44H565.865V295.596C569.789 295.596 570.081 295.757 570.081 298.593V307.775H547.412V298.593C547.412 295.757 547.708 295.596 551.631 295.596V294.44H538.687V295.596C543.08 295.596 543.372 295.757 543.372 298.632V319.712C543.372 322.547 543.08 322.745 538.687 322.745V323.903H551.631V322.745C547.708 322.745 547.412 322.547 547.412 319.712V309.29H570.081V319.712C570.081 322.547 569.789 322.745 565.865 322.745V323.903H578.809V322.745C574.417 322.745 574.121 322.547 574.121 319.712V298.632ZM659.83 298.632C659.83 295.757 660.126 295.596 664.515 295.596V294.44H651.574V295.596C655.495 295.596 655.79 295.757 655.79 298.593V307.775H633.121V298.593C633.121 295.757 633.414 295.596 637.337 295.596V294.44H624.393V295.596C628.785 295.596 629.081 295.757 629.081 298.632V319.712C629.081 322.547 628.785 322.745 624.393 322.745V323.903H637.337V322.745C633.414 322.745 633.121 322.547 633.121 319.712V309.29H655.79V319.712C655.79 322.547 655.495 322.745 651.574 322.745V323.903H664.515V322.745C660.126 322.745 659.83 322.547 659.83 319.712V298.632ZM714.787 307.733V298.713C714.787 295.835 715.196 295.596 719.824 295.596V294.44H706.059V295.596C710.339 295.596 710.747 295.835 710.747 298.431V319.631C710.747 322.547 710.395 322.745 706.059 322.745V323.903H723.219C735.286 323.903 737.28 318.712 737.28 315.559C737.28 311.445 732.592 307.733 720.352 307.733H714.787ZM745.188 319.712C745.188 322.547 744.955 322.745 740.031 322.745V323.903H754.384V322.745C749.52 322.745 749.228 322.547 749.228 319.712V298.67C749.228 295.757 749.52 295.596 754.384 295.596V294.44H740.091V295.596C744.955 295.596 745.188 295.757 745.188 298.67V319.712ZM714.787 309.212H721.057C730.542 309.212 733.064 312.604 733.064 315.52C733.064 320.23 729.609 322.428 722.931 322.428H716.953C715.14 322.428 714.787 322.107 714.787 320.392V309.212ZM829.02 323.903L831.126 317.634H829.079C827.438 322.146 826.853 322.428 823.395 322.428H811.211C809.982 322.428 809.517 322.188 809.517 320.631V309.29H818.77C821.464 309.29 821.813 309.529 821.813 313.404H823.867V303.7H821.813C821.813 307.455 821.464 307.775 818.83 307.775H809.517V297.874C809.517 296.155 809.693 295.916 811.74 295.916H821.697C824.92 295.916 825.504 295.997 827.086 300.586H829.136L827.262 294.44H800.729V295.596C805.062 295.596 805.477 295.757 805.477 298.632V319.67C805.477 322.547 805.062 322.745 800.729 322.745V323.903H829.02ZM931.125 316.12C929.135 319.789 925.56 322.907 919.121 322.907C912.327 322.907 905.18 318.913 905.18 308.811C905.18 300.188 910.745 295.278 919.762 295.278C927.557 295.278 928.138 297.314 929.603 301.985L931.597 301.707C930.949 299.671 930.484 297.473 930.072 295.236C927.789 294.599 923.866 293.841 919.762 293.841C908.287 293.841 900.964 299.111 900.964 308.853C900.964 321.427 911.038 324.502 918.653 324.502C924.626 324.502 930.072 322.385 933.178 316.556L931.125 316.12ZM1019.18 298.67C1019.18 295.757 1019.53 295.596 1023.86 295.596V294.44H1010.8V295.596C1015.13 295.596 1015.13 295.757 1015.13 299.311L992.415 316.877V298.593C992.415 295.757 992.704 295.596 996.687 295.596V294.44H983.623V295.596C988.015 295.596 988.368 295.757 988.368 298.67V319.712C988.368 322.547 988.015 322.745 983.623 322.745V323.903H996.687V322.745C992.415 322.745 992.415 322.505 992.415 319.233L1015.13 301.707V319.712C1015.13 322.547 1014.84 322.745 1010.8 322.745V323.903H1023.86V322.745C1019.53 322.745 1019.18 322.547 1019.18 319.712V298.67ZM1102.54 316.12C1100.55 319.789 1096.97 322.907 1090.54 322.907C1083.74 322.907 1076.6 318.913 1076.6 308.811C1076.6 300.188 1082.16 295.278 1091.18 295.278C1098.97 295.278 1099.55 297.314 1101.01 301.985L1103.01 301.707C1102.36 299.671 1101.9 297.473 1101.49 295.236C1099.2 294.599 1095.28 293.841 1091.18 293.841C1079.7 293.841 1072.38 299.111 1072.38 308.853C1072.38 321.427 1082.45 324.502 1090.07 324.502C1096.04 324.502 1101.49 322.385 1104.59 316.556L1102.54 316.12ZM1177.24 295.916H1185.61C1189.07 295.916 1189.42 296.036 1190.71 300.826H1192.64L1191.24 294.44H1159.2L1157.85 300.826H1159.78C1160.96 296.117 1161.36 295.916 1164.82 295.916H1173.2V319.712C1173.2 322.547 1172.96 322.745 1167.57 322.745V323.903H1182.92V322.745C1177.53 322.745 1177.24 322.547 1177.24 319.712V295.916ZM1273.96 323.903L1276.06 317.634H1274.02C1272.37 322.146 1271.79 322.428 1268.33 322.428H1256.15C1254.92 322.428 1254.46 322.188 1254.46 320.631V309.29H1263.71C1266.4 309.29 1266.75 309.529 1266.75 313.404H1268.8V303.7H1266.75C1266.75 307.455 1266.4 307.775 1263.77 307.775H1254.46V297.874C1254.46 296.155 1254.63 295.916 1256.68 295.916H1266.63C1269.86 295.916 1270.44 295.997 1272.02 300.586H1274.08L1272.2 294.44H1245.67V295.596C1250 295.596 1250.41 295.757 1250.41 298.632V319.67C1250.41 322.547 1250 322.745 1245.67 322.745V323.903H1273.96ZM1361.24 294.44L1346.84 319.832H1346.66L1331.55 294.44H1323.06V295.596C1327.33 295.596 1327.63 295.715 1327.63 298.512V319.67C1327.63 322.547 1327.33 322.745 1323.06 322.745V323.903H1334.13V322.745C1330.14 322.745 1329.91 322.547 1329.91 319.67V298.234H1330.03L1345.26 324.104H1346.84L1361.36 298.272H1361.48V319.67C1361.48 322.547 1361.31 322.745 1357.26 322.745V323.903H1370.15V322.745C1365.81 322.745 1365.52 322.547 1365.52 319.67V298.67C1365.52 295.757 1365.75 295.596 1370.15 295.596V294.44H1361.24V294.44ZM1416.85 307.733V298.713C1416.85 295.835 1417.26 295.596 1421.88 295.596V294.44H1408.12V295.596C1412.4 295.596 1412.81 295.835 1412.81 298.431V319.631C1412.81 322.547 1412.46 322.745 1408.12 322.745V323.903H1425.28C1437.35 323.903 1439.34 318.712 1439.34 315.559C1439.34 311.445 1434.65 307.733 1422.41 307.733H1416.85ZM1447.25 319.712C1447.25 322.547 1447.02 322.745 1442.09 322.745V323.903H1456.44V322.745C1451.58 322.745 1451.29 322.547 1451.29 319.712V298.67C1451.29 295.757 1451.58 295.596 1456.44 295.596V294.44H1442.15V295.596C1447.02 295.596 1447.25 295.757 1447.25 298.67V319.712ZM1416.85 309.212H1423.12C1432.6 309.212 1435.12 312.604 1435.12 315.52C1435.12 320.23 1431.67 322.428 1424.99 322.428H1419.01C1417.2 322.428 1416.85 322.107 1416.85 320.392V309.212Z"
    fill="white" stroke="white" stroke-width="0.377956" stroke-miterlimit="22.9256" />
</svg>