<svg width="33" height="33" viewBox="0 0 33 33" fill="none" xmlns="http://www.w3.org/2000/svg">
<circle cx="16.5" cy="16.5" r="15.5" fill="#EE7203" stroke="#EE7203" stroke-width="2"/>
<path d="M26.0001 21.9201V24.9201C26.0012 25.1986 25.9441 25.4743 25.8326 25.7294C25.721 25.9846 25.5574 26.2137 25.3521 26.402C25.1469 26.5902 24.9046 26.7336 24.6408 26.8228C24.377 26.912 24.0974 26.9452 23.8201 26.9201C20.7429 26.5857 17.7871 25.5342 15.1901 23.8501C12.7739 22.3148 10.7254 20.2663 9.19006 17.8501C7.50003 15.2413 6.4483 12.2711 6.12006 9.1801C6.09507 8.90356 6.12793 8.62486 6.21656 8.36172C6.30518 8.09859 6.44763 7.85679 6.63482 7.65172C6.82202 7.44665 7.04986 7.28281 7.30385 7.17062C7.55783 7.05843 7.8324 7.00036 8.11006 7.0001H11.1101C11.5954 6.99532 12.0658 7.16718 12.4338 7.48363C12.8018 7.80008 13.0421 8.23954 13.1101 8.7201C13.2367 9.68016 13.4715 10.6228 13.8101 11.5301C13.9446 11.888 13.9737 12.277 13.894 12.651C13.8142 13.0249 13.6289 13.3682 13.3601 13.6401L12.0901 14.9101C13.5136 17.4136 15.5865 19.4865 18.0901 20.9101L19.3601 19.6401C19.6319 19.3712 19.9752 19.1859 20.3492 19.1062C20.7231 19.0264 21.1121 19.0556 21.4701 19.1901C22.3773 19.5286 23.32 19.7635 24.2801 19.8901C24.7658 19.9586 25.2095 20.2033 25.5266 20.5776C25.8437 20.9519 26.0122 21.4297 26.0001 21.9201Z" fill="white"/>
<path d="M17 9.40942C17 9.40942 19.8864 9.82618 21.7232 11.771C23.56 13.7159 23.6125 16.0219 23.6125 16.0219" stroke="white" stroke-width="1.88928" stroke-linecap="round"/>
<path d="M17.3334 5.31812C17.3334 5.31812 21.5555 5.31789 24.5571 7.99244C27.5588 10.667 28.3357 15.0772 28.3357 15.0772" stroke="white" stroke-width="1.88928" stroke-linecap="round"/>
</svg>
