<svg width="22" height="22" viewBox="0 0 22 22" fill="none" xmlns="http://www.w3.org/2000/svg">
<mask id="mask0_218_116" style="mask-type:luminance" maskUnits="userSpaceOnUse" x="1" y="1" width="21" height="21">
<path d="M21.6931 1H1V21.6931H21.6931V1Z" fill="white"/>
</mask>
<g mask="url(#mask0_218_116)">
<path d="M19.9686 15.5887V18.1753C19.9695 18.4155 19.9204 18.6531 19.8242 18.8732C19.728 19.0932 19.587 19.2906 19.4099 19.4529C19.233 19.6153 19.0241 19.7389 18.7967 19.8158C18.5692 19.8927 18.3281 19.9213 18.089 19.8998C15.4358 19.6115 12.8873 18.7048 10.6481 17.2527C8.56483 15.9289 6.79859 14.1627 5.4748 12.0795C4.01764 9.83013 3.11081 7.26918 2.8278 4.60407C2.80625 4.36564 2.8346 4.12534 2.91101 3.89846C2.98742 3.67157 3.11023 3.46309 3.27164 3.28628C3.43304 3.10947 3.62949 2.9682 3.84848 2.87147C4.06748 2.77474 4.30421 2.72467 4.54361 2.72445H7.13025C7.54869 2.72033 7.95434 2.8685 8.27162 3.14135C8.58888 3.41421 8.79611 3.79312 8.85468 4.20746C8.96385 5.03524 9.16632 5.84801 9.45823 6.63027C9.57424 6.93889 9.59934 7.27428 9.53057 7.59672C9.46181 7.91916 9.30205 8.21512 9.07023 8.44955L7.97522 9.54457C9.20264 11.7031 10.9899 13.4904 13.1485 14.7178L14.2435 13.6228C14.478 13.391 14.7739 13.2312 15.0963 13.1624C15.4188 13.0937 15.7542 13.1188 16.0628 13.2348C16.8451 13.5267 17.6578 13.7292 18.4856 13.8383C18.9044 13.8975 19.287 14.1084 19.5603 14.4311C19.8338 14.7538 19.9791 15.1658 19.9686 15.5887Z" fill="white" stroke="#EE7203" stroke-width="1.62467" stroke-linecap="round" stroke-linejoin="round"/>
</g>
</svg>
